{
	"asset":{
		"generator":"Khronos glTF Blender I/O v4.1.63",
		"version":"2.0"
	},
	"scene":0,
	"scenes":[
		{
			"name":"Scene",
			"nodes":[
				1,
				2
			]
		}
	],
	"nodes":[
		{
			"mesh":0,
			"name":"\u00b8\u00b4\u00bc\u00fe 5",
			"rotation":[
				0.7071068286895752,
				-0.7071068286895752,
				0,
				2.469524862380723e-10
			],
			"translation":[
				0.1356985867023468,
				-0.03569599613547325,
				0.000611310126259923
			]
		},
		{
			"children":[
				0
			],
			"name":"j2",
			"rotation":[
				0.5011460781097412,
				-0.49885138869285583,
				-0.49885138869285583,
				0.5011460185050964
			],
			"translation":[
				-1.1439780791988596e-05,
				0.13569997251033783,
				0.03569599986076355
			]
		},
		{
			"name":"j1",
			"translation":[
				0,
				0.07270000129938126,
				0
			]
		}
	],
	"materials":[
		{
			"doubleSided":true,
			"name":"mat_0",
			"pbrMetallicRoughness":{
				"baseColorFactor":[
					0.9215818643569946,
					0.9215818643569946,
					0.8962693810462952,
					1
				],
				"metallicFactor":0.5,
				"roughnessFactor":0.5
			}
		}
	],
	"meshes":[
		{
			"name":"\u00b8\u00b4\u00bc\u00fe 5",
			"primitives":[
				{
					"attributes":{
						"POSITION":0,
						"NORMAL":1
					},
					"indices":2,
					"material":0
				}
			]
		}
	],
	"accessors":[
		{
			"bufferView":0,
			"componentType":5126,
			"count":13583,
			"max":[
				-0.026131760329008102,
				0.1319248080253601,
				0.02486713044345379
			],
			"min":[
				-0.09020951390266418,
				-0.02425762265920639,
				-0.024353934451937675
			],
			"type":"VEC3"
		},
		{
			"bufferView":1,
			"componentType":5126,
			"count":13583,
			"type":"VEC3"
		},
		{
			"bufferView":2,
			"componentType":5123,
			"count":48783,
			"type":"SCALAR"
		}
	],
	"bufferViews":[
		{
			"buffer":0,
			"byteLength":162996,
			"byteOffset":0,
			"target":34962
		},
		{
			"buffer":0,
			"byteLength":162996,
			"byteOffset":162996,
			"target":34962
		},
		{
			"buffer":0,
			"byteLength":97566,
			"byteOffset":325992,
			"target":34963
		}
	],
	"buffers":[
		{
			"byteLength":423560,
			"uri":"Mycobot_j1.bin"
		}
	]
}
