{
	"asset":{
		"generator":"Khronos glTF Blender I/O v4.1.63",
		"version":"2.0"
	},
	"scene":0,
	"scenes":[
		{
			"name":"Scene",
			"nodes":[
				1
			]
		}
	],
	"nodes":[
		{
			"mesh":0,
			"name":"____ 3",
			"rotation":[
				0,
				0.7071068286895752,
				0,
				0.7071067094802856
			],
			"translation":[
				0,
				0.06800001114606857,
				0
			]
		},
		{
			"children":[
				0
			],
			"name":"j1",
			"translation":[
				0,
				0.07270000129938126,
				0
			]
		}
	],
	"materials":[
		{
			"doubleSided":true,
			"name":"mat_0",
			"pbrMetallicRoughness":{
				"baseColorFactor":[
					0.9215818643569946,
					0.9215818643569946,
					0.8962693810462952,
					1
				],
				"metallicFactor":0.5,
				"roughnessFactor":0.5
			}
		}
	],
	"meshes":[
		{
			"name":"____ 3",
			"primitives":[
				{
					"attributes":{
						"POSITION":0,
						"NORMAL":1
					},
					"indices":2,
					"material":0
				}
			]
		}
	],
	"accessors":[
		{
			"bufferView":0,
			"componentType":5126,
			"count":12556,
			"max":[
				0.024139555171132088,
				0.016887128353118896,
				0.024276580661535263
			],
			"min":[
				-0.04072008654475212,
				-0.06802266091108322,
				-0.024276984855532646
			],
			"type":"VEC3"
		},
		{
			"bufferView":1,
			"componentType":5126,
			"count":12556,
			"type":"VEC3"
		},
		{
			"bufferView":2,
			"componentType":5123,
			"count":46095,
			"type":"SCALAR"
		}
	],
	"bufferViews":[
		{
			"buffer":0,
			"byteLength":150672,
			"byteOffset":0,
			"target":34962
		},
		{
			"buffer":0,
			"byteLength":150672,
			"byteOffset":150672,
			"target":34962
		},
		{
			"buffer":0,
			"byteLength":92190,
			"byteOffset":301344,
			"target":34963
		}
	],
	"buffers":[
		{
			"byteLength":393536,
			"uri":"Mycobot_j0.bin"
		}
	]
}
