{
	"asset":{
		"generator":"Khronos glTF Blender I/O v4.1.63",
		"version":"2.0"
	},
	"scene":0,
	"scenes":[
		{
			"name":"Scene",
			"nodes":[
				0
			]
		}
	],
	"nodes":[
		{
			"mesh":0,
			"name":"j6",
			"rotation":[
				0.5,
				0.5,
				-0.5,
				0.5
			]
		}
	],
	"materials":[
		{
			"doubleSided":true,
			"name":"mat_0",
			"pbrMetallicRoughness":{
				"baseColorFactor":[
					0.9215818643569946,
					0.9215818643569946,
					0.8962693810462952,
					1
				],
				"metallicFactor":0.5,
				"roughnessFactor":0.5
			}
		}
	],
	"meshes":[
		{
			"name":"j6",
			"primitives":[
				{
					"attributes":{
						"POSITION":0,
						"NORMAL":1
					},
					"indices":2,
					"material":0
				}
			]
		}
	],
	"accessors":[
		{
			"bufferView":0,
			"componentType":5126,
			"count":14073,
			"max":[
				0.01890648901462555,
				0.014055217616260052,
				0.018851306289434433
			],
			"min":[
				-0.018901020288467407,
				-0.005244783125817776,
				-0.018900368362665176
			],
			"type":"VEC3"
		},
		{
			"bufferView":1,
			"componentType":5126,
			"count":14073,
			"type":"VEC3"
		},
		{
			"bufferView":2,
			"componentType":5123,
			"count":53640,
			"type":"SCALAR"
		}
	],
	"bufferViews":[
		{
			"buffer":0,
			"byteLength":168876,
			"byteOffset":0,
			"target":34962
		},
		{
			"buffer":0,
			"byteLength":168876,
			"byteOffset":168876,
			"target":34962
		},
		{
			"buffer":0,
			"byteLength":107280,
			"byteOffset":337752,
			"target":34963
		}
	],
	"buffers":[
		{
			"byteLength":445032,
			"uri":"Mycobot_j5.bin"
		}
	]
}
