{
	"asset":{
		"generator":"Khronos glTF Blender I/O v4.1.63",
		"version":"2.0"
	},
	"scene":0,
	"scenes":[
		{
			"name":"Scene",
			"nodes":[
				0,
				1,
				2
			]
		}
	],
	"nodes":[
		{
			"mesh":0,
			"name":"\u00b8\u00b4\u00bc\u00fe 9",
			"rotation":[
				0,
				0.7071068286895752,
				0,
				0.7071068286895752
			]
		},
		{
			"name":"j2",
			"rotation":[
				0.5011460781097412,
				-0.49885138869285583,
				-0.49885138869285583,
				0.5011459589004517
			],
			"translation":[
				-1.1439780791988596e-05,
				0.13569997251033783,
				0.03569599986076355
			]
		},
		{
			"name":"j1",
			"translation":[
				0,
				0.07270000129938126,
				0
			]
		}
	],
	"materials":[
		{
			"doubleSided":true,
			"name":"mat_0",
			"pbrMetallicRoughness":{
				"baseColorFactor":[
					0.9215818643569946,
					0.9215818643569946,
					0.8962693810462952,
					1
				],
				"metallicFactor":0.5,
				"roughnessFactor":0.5
			}
		}
	],
	"meshes":[
		{
			"name":"\u00b8\u00b4\u00bc\u00fe 9",
			"primitives":[
				{
					"attributes":{
						"POSITION":0,
						"NORMAL":1
					},
					"indices":2,
					"material":0
				}
			]
		}
	],
	"accessors":[
		{
			"bufferView":0,
			"componentType":5126,
			"count":6567,
			"max":[
				-0.03016054630279541,
				0.03716149926185608,
				0.01922321878373623
			],
			"min":[
				-0.08294783532619476,
				-0.019182445481419563,
				-0.019363248720765114
			],
			"type":"VEC3"
		},
		{
			"bufferView":1,
			"componentType":5126,
			"count":6567,
			"type":"VEC3"
		},
		{
			"bufferView":2,
			"componentType":5123,
			"count":22056,
			"type":"SCALAR"
		}
	],
	"bufferViews":[
		{
			"buffer":0,
			"byteLength":78804,
			"byteOffset":0,
			"target":34962
		},
		{
			"buffer":0,
			"byteLength":78804,
			"byteOffset":78804,
			"target":34962
		},
		{
			"buffer":0,
			"byteLength":44112,
			"byteOffset":157608,
			"target":34963
		}
	],
	"buffers":[
		{
			"byteLength":201720,
			"uri":"Mycobot_j3.bin"
		}
	]
}
